<svg width="27" height="25" viewBox="0 0 27 25" fill="none" xmlns="http://www.w3.org/2000/svg">
<path d="M19.8532 7.55788C20.7941 7.70719 21.3771 6.95346 22.1265 6.65125C22.4526 6.51981 22.7036 5.93709 23.0591 6.42691C23.3773 6.86557 23.2153 7.44038 22.7901 7.79053C22.5592 7.98081 22.3243 8.09603 22.3596 8.47086C22.6147 8.4907 22.8706 8.44422 23.1021 8.33599C23.3337 8.22776 23.533 8.06149 23.6804 7.85351C24.1687 7.19395 24.7071 7.47156 25.0209 7.82759C25.2141 8.04692 25.2215 8.65189 24.8373 9.01747C24.6771 9.16991 24.158 9.24002 24.7138 9.66897C24.9309 9.83652 24.3073 10.1703 24.1138 10.4664C24.0153 10.617 23.7741 10.6676 23.6354 10.8021C23.4947 10.9386 23.5215 11.1069 23.6763 11.246C23.9063 11.4525 23.9491 11.2278 24.026 11.0971C24.4652 10.3492 25.1861 9.89018 25.8856 9.26132C26.3004 10.1027 25.6165 10.4803 25.2769 10.9377C24.6026 11.8463 23.7724 12.6098 22.8774 13.3048C22.8136 13.3516 22.7678 13.4186 22.7476 13.4947C22.7273 13.5709 22.7339 13.6517 22.766 13.7237C23.4489 13.5731 23.8737 13.014 24.4878 12.5497C24.5466 13.4491 23.8214 13.6627 23.4275 14.0112C22.259 15.0452 20.9982 15.9774 19.7539 16.9237C19.3522 17.2292 19.2768 17.5826 19.3484 18.0438C19.5531 19.3657 19.76 20.6882 19.9187 22.0161C20.014 22.8132 20.0569 23.6189 19.1312 24.0706C18.9028 24.1822 18.8047 24.6152 18.5438 24.0808C18.4091 23.805 18.1966 24.0965 18.0616 24.1917C17.6571 24.4765 17.3929 24.5778 17.2241 23.9391C17.079 23.3898 16.8178 22.8146 16.073 23.4238C16.0135 23.4638 15.9454 23.4893 15.8741 23.4984C15.8029 23.5074 15.7305 23.4998 15.6628 23.476C14.8077 23.0208 13.6412 23.2427 13.0229 22.2782C12.7951 21.923 12.4984 21.8797 12.1487 22.0963C11.4019 22.5596 10.6422 22.1236 9.89073 22.1074C9.66889 22.1027 9.78914 21.8151 9.84025 21.6766C9.98287 21.2903 10.1581 20.9161 10.3836 20.3889C9.51738 20.754 8.68058 20.6197 7.99971 21.2135C7.76291 21.42 7.18772 21.2683 6.77121 21.2321C6.61174 21.2183 6.45109 21.08 6.62946 20.8648C6.95643 20.4704 6.94446 19.9048 7.38002 19.5488C6.93469 19.281 6.62363 19.3525 6.36045 19.7015C6.29225 19.792 6.2094 19.8715 6.13333 19.956C5.07021 21.1378 4.48478 21.1663 3.30125 20.0917C3.21911 20.017 3.06917 19.9216 3.07933 19.8554C3.21478 18.9702 2.57344 18.3558 2.14299 17.797C1.61647 17.1132 1.2984 16.3787 1.03002 15.6138C0.852436 15.1078 1.2202 14.6595 1.57717 14.3001C2.97404 12.8935 4.55581 11.7386 6.39187 10.9655C7.15464 10.6444 7.44318 10.331 7.0844 9.41298C6.4229 7.72097 5.94418 5.95064 6.09041 4.09148C6.26154 1.916 8.52576 0.220241 10.6666 0.655618C10.8857 0.70019 11.1648 0.713351 11.2493 0.951327C11.3457 1.22213 11.0512 1.32615 10.905 1.48219C10.5219 1.89133 10.0388 2.23928 10.0866 3.00546C10.6014 2.83172 10.7595 2.38663 11.022 2.06217C11.6762 1.25307 12.9847 1.39634 13.3522 2.3712C13.4886 2.73286 13.7282 2.65038 13.9428 2.71696C14.7297 2.96097 15.1131 3.64184 14.7909 4.25355C15.2449 4.43951 16.2115 4.30752 15.4302 5.26757C15.3824 5.32617 15.3879 5.42745 15.3685 5.50892C16.3414 5.62329 15.5936 6.3145 15.7701 6.69614C15.9828 7.15439 16.2926 6.89338 16.5632 6.79288C17.814 6.32813 18.9912 5.68603 20.2729 5.28966C20.5976 5.18932 20.9689 5.08404 21.1549 5.3145C21.4476 5.67765 20.9191 5.78833 20.7811 6.02874C20.493 6.53101 19.8149 6.77972 19.8532 7.55788ZM6.0319 15.1406C5.8066 15.1619 5.68619 15.1474 5.58752 15.1867C4.35839 15.6775 3.73012 16.7876 2.95254 17.7419C2.92175 17.7797 2.96286 17.8938 2.99538 17.9604C3.00592 17.9871 3.02282 18.0108 3.04462 18.0295C3.06643 18.0482 3.09249 18.0614 3.12055 18.0678C3.14861 18.0743 3.17784 18.0739 3.2057 18.0666C3.23355 18.0593 3.25921 18.0454 3.28046 18.026C4.33673 17.2481 5.64256 16.7065 6.0319 15.1405V15.1406Z" fill="#81E2B4"/>
</svg>
