<svg width="23" height="27" viewBox="0 0 23 27" fill="none" xmlns="http://www.w3.org/2000/svg">
<path d="M22.927 0.307031L22.2728 3.18555C22.1759 3.74192 21.8367 4.23783 21.2793 4.63696C20.722 5.04816 20.092 5.25379 19.4015 5.25379H13.9858C12.532 5.25379 11.6718 5.88269 11.4174 7.14055C11.3447 7.4429 11.2962 7.66065 11.2841 7.79369C11.272 7.92673 11.2598 8.07185 11.2598 8.25328C11.2598 8.6161 11.3568 8.89431 11.5628 9.11201C11.7687 9.32971 12.1443 9.52321 12.6774 9.70464L16.8572 11.2407C17.9839 11.6519 18.8441 12.3413 19.4257 13.3089C19.9345 14.1797 20.189 15.2077 20.189 16.3809C20.189 16.8647 20.1768 17.2396 20.1526 17.4937C20.1284 17.7476 20.0557 18.1347 19.9224 18.6427C19.0743 22.1501 18.0203 24.4602 16.736 25.5849C15.8153 26.3832 14.3856 26.7704 12.4351 26.7704H2.70634C1.48269 26.7704 0.864807 26.2262 0.864807 25.1498C0.864807 24.8716 0.889037 24.6295 0.9375 24.4602L1.85826 20.4569H2.47617C2.68213 20.9527 2.92443 21.3035 3.20309 21.497C3.48176 21.6905 3.94215 21.7873 4.58426 21.7873H10.0362C11.0297 21.7873 11.7929 21.5454 12.3018 21.0616C12.6895 20.6988 12.9802 20.1182 13.1862 19.2958C13.2832 18.8362 13.3437 18.558 13.3559 18.4733C13.3679 18.3886 13.3801 18.1831 13.3801 17.8807C13.3801 16.8889 12.7622 16.1632 11.5385 15.7278L8.42487 14.6877C7.29813 14.3248 6.47425 13.708 5.96542 12.8009C5.45658 11.9059 5.20212 10.8415 5.20212 9.61999C5.20212 9.11201 5.22636 8.71288 5.26273 8.43471C5.29906 8.15651 5.39601 7.67272 5.55348 6.97123C6.11081 4.61276 6.87407 2.95578 7.81909 1.97609C8.94583 0.85128 10.6177 0.282837 12.847 0.282837H22.927V0.307031Z" fill="#343434"/>
</svg>