<svg width="102" height="72" viewBox="0 0 102 72" fill="none" xmlns="http://www.w3.org/2000/svg">
<path d="M25.9271 20.307L25.2729 23.1856C25.176 23.7419 24.8367 24.2378 24.2794 24.637C23.7221 25.0482 23.0921 25.2538 22.4015 25.2538H16.9859C15.532 25.2538 14.6718 25.8827 14.4174 27.1405C14.3447 27.4429 14.2963 27.6606 14.2842 27.7937C14.272 27.9267 14.2599 28.0719 14.2599 28.2533C14.2599 28.6161 14.3568 28.8943 14.5628 29.112C14.7688 29.3297 15.1444 29.5232 15.6774 29.7046L19.8572 31.2407C20.984 31.6519 21.8442 32.3413 22.4258 33.3089C22.9346 34.1797 23.189 35.2077 23.189 36.3809C23.189 36.8647 23.1769 37.2396 23.1526 37.4937C23.1284 37.7476 23.0557 38.1347 22.9225 38.6427C22.0744 42.1501 21.0204 44.4602 19.7361 45.5849C18.8153 46.3832 17.3857 46.7704 15.4351 46.7704H5.7064C4.48276 46.7704 3.86487 46.2262 3.86487 45.1498C3.86487 44.8716 3.8891 44.6295 3.93756 44.4602L4.85832 40.4569H5.47623C5.6822 40.9527 5.92449 41.3035 6.20316 41.497C6.48182 41.6905 6.94221 41.7873 7.58432 41.7873H13.0363C14.0297 41.7873 14.793 41.5454 15.3019 41.0616C15.6896 40.6988 15.9803 40.1182 16.1863 39.2958C16.2832 38.8362 16.3438 38.558 16.3559 38.4733C16.368 38.3886 16.3801 38.1831 16.3801 37.8807C16.3801 36.8889 15.7623 36.1632 14.5386 35.7278L11.4249 34.6877C10.2982 34.3248 9.47431 33.708 8.96548 32.8009C8.45664 31.9059 8.20218 30.8415 8.20218 29.62C8.20218 29.112 8.22642 28.7129 8.2628 28.4347C8.29912 28.1565 8.39607 27.6727 8.55354 26.9712C9.11087 24.6128 9.87413 22.9558 10.8191 21.9761C11.9459 20.8513 13.6178 20.2828 15.847 20.2828H25.9271V20.307Z" fill="#343434"/>
<path d="M37.4489 22.5689L32.2271 44.9079C32.2271 45.1619 32.2271 45.343 32.2271 45.4401C32.2271 45.924 32.5058 46.1659 33.0752 46.1659L32.9662 46.7826H27.0902C26.654 46.7826 26.3511 46.6981 26.1936 46.5286C26.024 46.3591 25.9392 46.1172 25.9392 45.7786C25.9392 45.4401 25.9998 45.0287 26.1331 44.5087L31.3548 22.1818C31.3548 21.9278 31.3548 21.7464 31.3548 21.6497C31.3548 21.1659 31.0762 20.924 30.5067 20.924L30.6158 20.3071H36.4918C36.9522 20.3071 37.255 20.4039 37.4125 20.6095C37.57 20.8151 37.6427 21.0933 37.6427 21.4561C37.6427 21.698 37.5821 22.0609 37.4489 22.5689Z" fill="#343434"/>
<path d="M57.706 27.8179C57.3423 27.4066 56.894 27.0559 56.3733 26.7656C55.1251 26.0641 53.4412 25.7134 51.3332 25.7134H49.9155C46.7173 25.7134 44.3546 26.3665 42.8402 27.6606C42.3556 28.0718 41.9194 28.5919 41.5075 29.2088C40.6231 30.5634 39.9204 32.4018 39.3994 34.7482L38.6725 37.9654C38.4423 38.9571 38.3333 39.8521 38.3333 40.6504C38.3333 42.9242 39.1329 44.5933 40.7443 45.6699C40.9865 45.8268 41.241 45.9842 41.5075 46.1171C42.8402 46.7704 44.5606 47.0969 46.6931 47.0969H47.6863C50.9695 47.0969 53.3079 46.5526 54.7377 45.4641C55.3555 44.9923 55.8883 44.3514 56.3733 43.5168C57.0032 42.4162 57.5239 41.0011 57.936 39.2716L58.6629 36.2479C58.7962 35.7399 58.9054 35.1352 59.002 34.4216C59.1112 33.7201 59.1595 33.1517 59.1595 32.7163C59.1595 30.5513 58.675 28.9185 57.706 27.8179ZM50.2305 41.6905C49.5885 42.3558 48.6191 42.6944 47.311 42.6944C45.5179 42.6944 44.6212 41.8599 44.6212 40.2029C44.6212 39.961 44.6333 39.7312 44.6575 39.5014C44.6696 39.4047 44.6818 39.3079 44.6938 39.2232C44.7422 38.9087 44.8272 38.5096 44.9242 38.05L45.5783 35.2198C45.9662 33.4661 46.4144 32.2203 46.911 31.4826C47.0081 31.3374 47.1168 31.2044 47.2139 31.1077C47.8438 30.4545 48.8253 30.128 50.1459 30.128C51.4907 30.128 52.3389 30.5755 52.678 31.4826C52.7993 31.797 52.8597 32.1841 52.8597 32.6074C52.8597 33.4298 52.7143 34.4337 52.3993 35.6311L51.7815 38.0863C51.6603 38.6064 51.5269 39.0781 51.3816 39.5014C51.0666 40.4931 50.6787 41.2309 50.2305 41.6905Z" fill="#343434"/>
<path d="M47.2381 32.7646L45.6633 39.6829L51.9873 37.4816L47.2381 32.7646Z" fill="#343434"/>
<path d="M61.1588 26.0522H66.5742C67.677 26.0522 68.2219 26.5964 68.2219 27.697L68.5248 38.4976L73.5165 28.1083C73.6498 27.8059 73.7102 27.564 73.7102 27.3825C73.7102 26.8988 73.4073 26.6569 72.7895 26.6569L72.947 26.04H78.7019C79.441 26.04 79.8168 26.3424 79.8168 26.9593C79.8168 27.3221 79.6835 27.697 79.4289 28.1083L69.4459 46.7585H63.0731L62.2008 27.818C62.2008 27.5156 62.0916 27.2374 61.8496 27.0076C61.6192 26.7778 61.3525 26.6569 61.0376 26.6569L61.1588 26.0522Z" fill="#343434"/>
<path d="M90.5752 25.7134H91.9929C94.9853 25.7134 97.1054 26.4149 98.3652 27.8179C99.3346 28.9185 99.8191 30.5513 99.8191 32.7163C99.8191 33.1517 99.7708 33.7201 99.6617 34.4216C99.565 35.1231 99.4438 35.7278 99.3226 36.2358L98.5956 39.2595C97.8807 42.2953 96.8146 44.3635 95.3848 45.4521C93.9676 46.5406 91.6171 47.0848 88.3459 47.0848H87.3523C84.7961 47.0848 82.8093 46.613 81.4037 45.6699C79.7922 44.5933 78.9807 42.9242 78.9807 40.6504C78.9807 39.8642 79.0899 38.9692 79.3198 37.9654L80.0468 34.7482C80.81 31.3254 81.9611 28.9669 83.4875 27.6606C85.0144 26.3665 87.3765 25.7134 90.5752 25.7134ZM90.8056 30.1159C89.4728 30.1159 88.4913 30.4424 87.8735 31.0955C87.2436 31.7487 86.6983 33.1154 86.2379 35.2198L85.5834 38.05C85.4868 38.5096 85.4018 38.8967 85.3535 39.2232C85.3052 39.5377 85.2806 39.8642 85.2806 40.2029C85.2806 41.8598 86.1771 42.6944 87.9701 42.6944C89.2787 42.6944 90.2481 42.3678 90.8901 41.7026C91.5321 41.0374 92.0533 39.84 92.4653 38.0984L93.0831 35.6432C93.386 34.4458 93.5435 33.4298 93.5435 32.6195C93.5193 30.9504 92.6107 30.1159 90.8056 30.1159Z" fill="#343434"/>
</svg>