<svg width="20" height="20" viewBox="0 0 20 20" fill="none" xmlns="http://www.w3.org/2000/svg">
<path d="M9.11031 19.6073C4.67671 19.5318 1.6516 17.0373 0.399301 13.0663C-0.3192 10.7879 -0.00759909 8.57723 1.0271 6.48758C2.0721 4.37708 3.63086 2.69198 5.75311 1.61258C6.63956 1.16178 7.58981 0.832575 8.52311 0.480325C8.88706 0.343025 9.27356 0.376775 9.65646 0.512825C10.1428 0.682682 10.6567 0.759782 11.1715 0.740125C12.306 0.701825 13.3196 1.06513 14.2591 1.64363C14.8922 2.03338 15.5757 2.34863 16.1427 2.84218C17.9045 4.37601 19.1295 6.25935 19.8177 8.49218C20.0789 9.33243 19.9873 10.1912 19.906 11.0407C19.8591 11.5303 19.6677 12.0141 19.591 12.4836C19.531 12.8486 19.233 13.1136 19.2565 13.3571C19.292 13.7252 19.1415 13.9578 18.9932 14.2144C17.599 16.6276 15.4146 17.9965 12.8409 18.8477C11.9294 19.1491 11.0052 19.4017 10.0555 19.5441C9.68881 19.5991 9.31291 19.595 9.11031 19.6073ZM3.62846 7.78503C3.66786 7.75878 3.7198 7.74393 3.7301 7.71443C4.11776 6.60843 4.89301 5.80273 5.73761 5.03233C6.15706 4.64978 6.43521 4.13523 6.80261 3.57733C5.63056 3.95468 3.67971 6.61123 3.62846 7.78503ZM16.2873 11.9236L13.9788 14.893C15.455 13.6383 16.1712 12.7018 16.2873 11.9238V11.9236ZM3.32381 3.96768C4.15426 3.25768 5.11471 2.71053 5.87001 1.90648C4.91141 2.45598 4.00406 3.06963 3.32381 3.96768ZM14.1206 11.5797C13.7821 12.0056 13.2969 12.3406 13.2397 12.9461C13.6345 12.557 13.9954 12.1465 14.1206 11.5797ZM6.14101 7.72123C6.50436 7.17383 6.95266 6.68218 7.14456 6.04288C6.61381 6.48798 6.39526 7.11913 6.14101 7.72123ZM16.8038 16.4484L16.8869 16.517C17.2578 16.2504 17.5724 15.9131 17.8125 15.5246C17.6343 15.6552 17.4919 15.8207 17.3358 15.9721C17.165 16.1377 16.9817 16.29 16.8038 16.4484ZM2.87815 4.38503C2.6801 4.53118 2.54125 4.66268 2.4619 4.84963C2.4402 4.90073 2.41025 4.95913 2.471 4.99548C2.50844 5.00524 2.5479 5.00394 2.5846 4.99173C2.59 4.75613 2.97065 4.72898 2.87815 4.38503Z" fill="#81E2B4"/>
</svg>
