<?xml version="1.0" standalone="no"?>
<!DOCTYPE svg PUBLIC "-//W3C//DTD SVG 20010904//EN"
 "http://www.w3.org/TR/2001/REC-SVG-20010904/DTD/svg10.dtd">
<svg version="1.0" xmlns="http://www.w3.org/2000/svg"
 width="864.000000pt" height="864.000000pt" viewBox="0 0 864.000000 864.000000"
 preserveAspectRatio="xMidYMid meet">
<metadata>
Created by potrace 1.11, written by Peter Selinger 2001-2013
</metadata>
<g transform="translate(0.000000,864.000000) scale(0.100000,-0.100000)"
fill="#000000" stroke="none">
<path d="M4529 8546 c-2 -3 -44 -7 -94 -11 -151 -12 -180 -16 -280 -36 -27 -5
-63 -11 -80 -13 -45 -6 -272 -74 -322 -96 -23 -10 -43 -17 -43 -14 0 3 -10 -1
-22 -8 -13 -7 -25 -13 -28 -13 -13 -2 -187 -91 -198 -102 -7 -7 -18 -13 -23
-13 -5 0 -15 -4 -22 -10 -7 -5 -50 -38 -97 -72 -95 -69 -224 -191 -270 -255
-17 -23 -36 -48 -43 -55 -43 -46 -214 -335 -246 -418 -8 -19 -20 -42 -26 -50
-7 -8 -15 -24 -18 -35 -3 -11 -28 -76 -56 -144 -29 -69 -53 -132 -55 -140 -2
-9 -8 -28 -14 -42 -11 -27 -80 -245 -87 -277 -3 -9 -14 -51 -26 -92 -11 -41
-23 -86 -26 -100 -2 -14 -7 -32 -10 -40 -6 -16 -8 -22 -17 -60 -7 -30 -30
-136 -40 -185 -2 -11 -7 -31 -10 -45 -3 -14 -8 -38 -12 -55 -3 -16 -10 -52
-16 -80 -5 -27 -11 -66 -14 -85 -2 -19 -6 -45 -9 -57 -17 -74 -24 -419 -12
-578 9 -118 17 -174 43 -310 3 -16 39 -146 58 -210 5 -16 17 -48 27 -70 10
-22 32 -77 34 -85 4 -17 87 -171 109 -203 14 -21 26 -40 26 -43 0 -3 6 -11 13
-19 6 -7 28 -32 47 -56 136 -169 370 -326 610 -408 52 -18 104 -37 115 -41 11
-5 227 -77 480 -161 253 -83 472 -158 488 -166 15 -7 27 -11 27 -8 0 3 11 -2
25 -11 14 -9 25 -14 25 -10 0 3 17 -4 38 -16 20 -11 56 -31 78 -43 66 -35 114
-74 184 -146 36 -37 70 -73 75 -81 19 -25 73 -143 83 -183 34 -126 31 -299 -7
-481 -12 -55 -23 -109 -25 -120 -10 -49 -38 -145 -61 -209 -15 -38 -29 -79
-32 -90 -3 -11 -13 -28 -21 -37 -8 -10 -12 -18 -8 -18 4 0 -2 -13 -13 -29 -12
-16 -21 -32 -21 -35 0 -29 -158 -208 -215 -243 -89 -57 -256 -126 -302 -126
-7 0 -13 -3 -13 -7 0 -3 -8 -6 -17 -6 -10 0 -43 -4 -73 -8 -30 -5 -73 -10 -95
-12 -66 -6 -1997 -5 -2040 1 -22 3 -56 8 -75 11 -184 25 -295 110 -398 305
-21 41 -41 80 -43 88 -4 11 -27 15 -95 16 -49 0 -94 -1 -101 -3 -7 -2 -17 -27
-23 -55 -5 -29 -12 -61 -14 -72 -3 -11 -12 -51 -21 -90 -18 -74 -23 -97 -30
-130 -8 -34 -15 -64 -19 -82 -20 -82 -39 -162 -42 -180 -2 -12 -15 -69 -29
-125 -23 -101 -28 -123 -40 -183 -3 -16 -11 -48 -17 -70 -6 -22 -13 -49 -15
-60 -3 -19 -11 -54 -48 -207 -47 -197 -35 -389 31 -519 52 -103 174 -191 304
-219 30 -7 64 -15 75 -19 24 -9 3495 -6 3575 3 30 3 78 8 105 11 64 7 113 14
145 20 14 3 45 8 70 11 25 4 55 10 67 15 13 5 23 7 23 4 0 -2 18 2 40 10 22 8
41 14 43 14 14 -4 224 68 265 91 10 5 33 16 52 25 139 60 328 219 453 380 26
33 54 67 62 76 8 9 15 20 15 24 0 5 8 18 18 29 46 52 245 410 234 421 -3 3 0
5 6 5 7 0 12 9 12 20 0 11 5 20 10 20 6 0 9 3 8 8 -1 4 5 21 12 37 7 17 14 32
14 35 1 3 4 10 8 16 17 27 156 387 162 419 1 6 4 15 8 20 3 6 34 100 67 210
60 196 78 254 102 345 17 61 18 67 23 87 3 10 5 18 6 18 1 0 3 7 5 15 3 13 10
44 29 120 2 8 14 53 25 100 12 47 24 98 27 114 3 16 7 32 9 35 2 4 6 26 10 51
4 25 8 47 10 51 12 18 20 193 20 409 0 242 -4 308 -30 460 -4 22 -6 41 -5 42
1 2 -3 16 -9 31 -6 15 -13 40 -16 56 -16 92 -153 424 -196 474 -5 7 -36 48
-68 92 -53 75 -163 192 -238 257 -52 44 -205 148 -219 148 -7 0 -14 4 -16 9
-5 15 -167 88 -313 141 -77 28 -147 54 -155 57 -8 4 -17 7 -20 8 -3 1 -14 5
-25 9 -40 16 -123 47 -275 102 -85 31 -164 60 -175 64 -11 5 -47 18 -80 30
-33 11 -69 25 -80 30 -11 5 -40 16 -65 24 -25 8 -67 23 -95 34 -64 24 -89 33
-95 34 -3 0 -27 9 -55 20 -27 11 -88 34 -135 50 -94 33 -122 44 -162 65 -16 8
-28 11 -28 8 0 -4 -12 2 -27 12 -16 10 -41 25 -58 33 -106 52 -183 153 -203
266 -15 87 -7 243 18 346 6 24 13 52 15 63 2 11 10 43 16 70 47 210 163 375
333 469 52 29 179 73 235 82 18 3 43 8 55 10 16 4 284 16 341 15 6 0 136 0
290 0 154 -1 288 -1 298 -1 9 0 58 0 107 0 50 0 97 0 105 0 8 0 33 0 55 0 22
0 47 0 55 0 141 0 206 0 235 -1 168 -5 287 -3 283 5 -4 5 0 6 6 1 14 -8 95 -9
226 -1 90 4 208 29 272 57 24 10 45 19 48 20 37 9 45 13 45 20 0 5 6 9 13 9
14 0 114 61 172 105 87 66 235 239 235 276 0 5 6 20 14 32 13 20 36 97 50 167
3 14 7 34 10 45 20 90 39 170 41 184 2 9 4 16 5 16 1 0 3 9 5 19 2 11 11 53
21 95 9 42 18 85 20 96 1 11 3 21 4 23 2 1 3 5 4 10 8 31 17 71 21 90 3 12 7
32 10 45 2 12 8 36 12 52 4 17 8 35 9 40 0 6 3 17 6 25 3 8 11 42 18 75 7 33
15 66 17 73 4 10 -329 12 -1720 12 -948 -1 -1726 -2 -1728 -4z"/>
</g>
</svg>
